<?xml version="1.0" encoding="iso-8859-1"?>
<!-- Uploaded to: SVG Repo, www.svgrepo.com, Generator: SVG Repo Mixer Tools -->
<svg height="800px" width="800px" version="1.1" id="Layer_1" xmlns="http://www.w3.org/2000/svg" xmlns:xlink="http://www.w3.org/1999/xlink" 
	 viewBox="0 0 512 512" xml:space="preserve">
<g>
	<path style="fill:#5CC4E0;" d="M464.607,254.021c52.729,53.488,52.504,139.588-0.695,192.787
		c-53.434,53.434-140.058,53.434-193.492,0l3.453-3.453l190.04-190.029C464.158,253.562,464.372,253.786,464.607,254.021z"/>
	<path style="fill:#5CC4E0;" d="M238.128,443.355l3.453,3.453c-53.434,53.434-140.058,53.434-193.492,0
		c-53.199-53.199-53.424-139.299-0.695-192.787c0.235-0.235,0.46-0.47,0.695-0.705L238.128,443.355z"/>
</g>
<g>
	<path style="fill:#439EE8;" d="M238.128,443.355l-35.03-35.03c-46.847,46.847-119.201,52.618-172.338,17.323
		c4.964,7.475,10.738,14.57,17.328,21.16c53.434,53.434,140.058,53.434,193.492,0L238.128,443.355z"/>
	<path style="fill:#439EE8;" d="M273.872,443.355l35.03-35.03c46.847,46.847,119.201,52.618,172.338,17.323
		c-4.964,7.475-10.738,14.57-17.328,21.16c-53.434,53.434-140.058,53.434-193.492,0L273.872,443.355z"/>
</g>
<path style="fill:#FF675C;" d="M463.912,253.326l-190.04,190.029c-5.89,0.502-11.854,0.77-17.872,0.77
	c-6.018,0-11.982-0.267-17.872-0.77l-190.04-190.04c-0.235,0.235-0.46,0.47-0.695,0.705c-0.577-6.392-0.898-12.859-0.898-19.401
	c0-115.708,93.796-209.504,209.504-209.504s209.504,93.796,209.504,209.504c0,6.542-0.321,13.009-0.898,19.401
	C464.372,253.786,464.158,253.562,463.912,253.326z"/>
<path style="fill:#DB3D5A;" d="M256,337.235c-97.236,0-178.987-66.242-202.615-156.059c-4.488,17.063-6.889,34.972-6.889,53.445
	c0,6.542,0.321,13.009,0.898,19.401c0.235-0.235,0.46-0.47,0.695-0.705l190.04,190.04c5.89,0.502,11.854,0.77,17.872,0.77
	s11.982-0.267,17.872-0.77l190.04-190.029c0.246,0.235,0.46,0.46,0.695,0.695c0.577-6.392,0.898-12.859,0.898-19.401
	c0-18.473-2.401-36.382-6.889-53.445C434.988,270.993,353.237,337.235,256,337.235z"/>
<g>
	<path style="fill:#FAEC8E;" d="M114.905,363.958c8.85,0,16.033,7.183,16.033,16.034s-7.183,16.034-16.033,16.034H72.149
		c-8.85,0-16.034-7.183-16.034-16.034s7.183-16.034,16.034-16.034H114.905z"/>
	<path style="fill:#FAEC8E;" d="M444.127,363.958c8.85,0,16.034,7.183,16.034,16.034s-7.183,16.034-16.034,16.034h-42.756
		c-8.85,0-16.034-7.183-16.034-16.034s7.183-16.034,16.034-16.034H444.127z"/>
	<path style="fill:#FAEC8E;" d="M320.134,223.932c8.85,0,16.033,7.183,16.033,16.034s-7.183,16.034-16.033,16.034h-48.101v48.101
		c0,8.85-7.183,16.034-16.034,16.034c-8.85,0-16.033-7.183-16.033-16.034v-48.101h-48.101c-8.85,0-16.034-7.183-16.034-16.034
		s7.183-16.034,16.034-16.034h48.101v-43.825c0-8.85,7.183-16.034,16.033-16.034c8.85,0,16.034,7.183,16.034,16.034v43.825
		L320.134,223.932L320.134,223.932z"/>
</g>
<path d="M472.883,251.065c0.416-5.581,0.638-11.099,0.638-16.444c0-119.941-97.58-217.521-217.521-217.521
	c-37.961,0-75.332,9.926-108.073,28.704c-31.752,18.211-58.622,44.357-77.705,75.611c-2.308,3.779-1.115,8.713,2.664,11.02
	c3.78,2.307,8.713,1.115,11.02-2.664C120.855,69.26,185.19,33.133,256,33.133c111.1,0,201.488,90.387,201.488,201.488
	c0,4.65-0.176,9.448-0.518,14.31L270.307,435.582c-4.803,0.342-9.603,0.525-14.307,0.525c-4.704,0-9.505-0.184-14.307-0.525
	L55.03,248.92c-0.341-4.859-0.517-9.653-0.517-14.3c0-23.296,3.939-46.123,11.706-67.848c1.491-4.169-0.681-8.756-4.85-10.248
	c-4.167-1.49-8.756,0.68-10.248,4.85c-8.389,23.461-12.642,48.105-12.642,73.245c0,5.344,0.222,10.863,0.638,16.444
	c-25.376,27.06-39.238,62.241-39.116,99.485c0.127,38.502,15.191,74.7,42.419,101.927c27.357,27.358,63.729,42.426,102.415,42.426
	s75.057-15.066,102.415-42.424c0.162-0.162,0.311-0.332,0.456-0.504c2.782,0.108,5.554,0.17,8.295,0.17s5.512-0.062,8.295-0.17
	c0.145,0.172,0.294,0.342,0.456,0.504c27.357,27.356,63.729,42.424,102.415,42.424s75.057-15.066,102.415-42.424
	C496.807,425.25,511.871,389.052,512,350.55C512.123,313.307,498.259,278.125,472.883,251.065z M53.758,441.14
	c-48.181-48.18-50.074-125.82-5.487-176.304l181.796,181.795c-23.551,20.842-53.516,32.237-85.233,32.237
	C110.432,478.868,78.087,465.468,53.758,441.14z M458.244,441.14c-24.329,24.328-56.674,37.728-91.078,37.728
	c-31.716,0-61.682-11.394-85.232-32.236l181.801-181.791C508.317,315.325,506.422,392.961,458.244,441.14z"/>
<path d="M256,156.056c-13.262,0-24.05,10.788-24.05,24.05v35.808h-40.084c-13.262,0-24.05,10.788-24.05,24.05
	s10.788,24.05,24.05,24.05h40.084v40.084c0,13.262,10.788,24.05,24.05,24.05c13.262,0,24.05-10.788,24.05-24.05v-40.084h40.084
	c13.262,0,24.05-10.788,24.05-24.05s-10.788-24.05-24.05-24.05h-40.084v-35.808C280.051,166.845,269.262,156.056,256,156.056z
	 M320.134,231.948c4.421,0,8.017,3.596,8.017,8.017s-3.596,8.017-8.017,8.017h-48.101c-4.427,0-8.017,3.589-8.017,8.017v48.101
	c0,4.421-3.596,8.017-8.017,8.017c-4.421,0-8.017-3.596-8.017-8.017v-48.101c0-4.427-3.589-8.017-8.017-8.017h-48.101
	c-4.421,0-8.017-3.596-8.017-8.017s3.596-8.017,8.017-8.017h48.101c4.427,0,8.017-3.589,8.017-8.017v-43.825
	c0-4.421,3.596-8.017,8.017-8.017c4.421,0,8.017,3.596,8.017,8.017v43.825c0,4.427,3.589,8.017,8.017,8.017L320.134,231.948
	L320.134,231.948z"/>
<path d="M114.905,355.941H72.149c-13.262,0-24.05,10.788-24.05,24.05c0,13.262,10.788,24.05,24.05,24.05h42.756
	c13.262,0,24.05-10.788,24.05-24.05C138.956,366.729,128.167,355.941,114.905,355.941z M114.905,388.008H72.149
	c-4.421,0-8.017-3.596-8.017-8.017s3.596-8.017,8.017-8.017h42.756c4.421,0,8.017,3.596,8.017,8.017
	S119.326,388.008,114.905,388.008z"/>
<path d="M444.127,355.941h-42.756c-13.262,0-24.05,10.788-24.05,24.05c0,13.262,10.788,24.05,24.05,24.05h42.756
	c13.262,0,24.05-10.788,24.05-24.05C468.177,366.729,457.389,355.941,444.127,355.941z M444.127,388.008h-42.756
	c-4.421,0-8.017-3.596-8.017-8.017s3.596-8.017,8.017-8.017h42.756c4.421,0,8.017,3.596,8.017,8.017
	S448.548,388.008,444.127,388.008z"/>
<path d="M404.82,188.872c0.904,0,1.824-0.154,2.723-0.479c4.164-1.504,6.321-6.099,4.818-10.264
	c-1.325-3.67-2.798-7.335-4.377-10.894c-1.796-4.048-6.532-5.873-10.579-4.077s-5.873,6.532-4.077,10.579
	c1.426,3.214,2.756,6.525,3.953,9.838C398.459,186.841,401.539,188.872,404.82,188.872z"/>
<path d="M370.302,137.209c1.585,1.859,3.836,2.814,6.102,2.814c1.84,0,3.69-0.63,5.199-1.918c3.368-2.873,3.77-7.932,0.897-11.301
	C350.846,89.692,304.739,68.407,256,68.407c-4.427,0-8.017,3.589-8.017,8.017s3.589,8.017,8.017,8.017
	C300.038,84.44,341.699,103.674,370.302,137.209z"/>
</svg>